<svg width="587" height="587" viewBox="0 0 587 587" fill="none" xmlns="http://www.w3.org/2000/svg">
<g filter="url(#filter0_d_22_19)">
<path d="M151.715 258.629C151.715 292.332 124.383 319.652 90.667 319.652C56.9512 319.652 29.619 292.332 29.619 258.629C29.619 224.925 56.9512 197.605 90.667 197.605C124.383 197.605 151.715 224.925 151.715 258.629Z" fill="#D31E3C"/>
<path d="M137.071 230.991C139.694 235.014 140.354 239.233 138.55 240.413C136.74 241.587 133.151 239.276 130.528 235.246C127.905 231.217 127.244 226.998 129.048 225.824C130.858 224.65 134.447 226.961 137.071 230.991Z" fill="#A61932"/>
<path d="M66.7957 297.517C70.171 298.612 72.5434 300.63 72.0909 302.024C71.6385 303.418 68.5322 303.662 65.157 302.568C61.7879 301.473 59.4154 299.456 59.8679 298.061C60.3204 296.667 63.4266 296.423 66.7957 297.517Z" fill="#A61932"/>
<path d="M75.8514 217.722C69.8958 220.541 64.0503 220.663 62.7845 217.997C61.5188 215.331 65.3221 210.886 71.2716 208.067C77.2211 205.242 83.0727 205.12 84.3323 207.786C85.598 210.458 81.8009 214.903 75.8514 217.722Z" fill="#A61932"/>
<path d="M80.8837 251.964C77.8509 257.87 71.0881 260.445 65.7746 257.724C60.4671 254.99 58.6205 247.995 61.6533 242.095C64.6923 236.188 71.4489 233.614 76.7625 236.341C82.0699 239.062 83.9165 246.057 80.8837 251.964Z" fill="#A61932"/>
<path d="M112.551 259.203C113.847 263.037 117.693 265.202 121.142 264.04C124.591 262.878 126.34 258.824 125.043 254.99C123.753 251.157 119.907 248.992 116.458 250.148C113.01 251.309 111.261 255.363 112.551 259.203Z" fill="#A61932"/>
<path d="M91.6148 274.906C91.6148 276.942 89.97 278.587 87.9399 278.587C85.9099 278.587 84.259 276.942 84.259 274.906C84.259 272.882 85.9099 271.237 87.9399 271.237C89.97 271.237 91.6148 272.882 91.6148 274.906Z" fill="#A61932"/>
<path d="M127.703 295.579C128.743 298.655 123.814 303.088 116.703 305.479C109.586 307.875 102.982 307.325 101.948 304.256C100.909 301.18 105.837 296.747 112.949 294.35C120.06 291.953 126.67 292.503 127.703 295.579Z" fill="#A61932"/>
<path d="M123.508 196.755C112.044 191.484 104.669 183.046 107.03 177.91C109.396 172.768 120.604 172.878 132.069 178.148C143.534 183.419 150.908 191.851 148.548 196.994C146.187 202.13 134.973 202.02 123.508 196.755Z" fill="#D31E3C"/>
<path d="M125.483 192.463C117.596 188.843 112.521 183.034 114.147 179.5C115.767 175.972 123.484 176.045 131.372 179.671C139.254 183.291 144.329 189.1 142.702 192.634C141.076 196.168 133.365 196.089 125.483 192.463Z" fill="#A61932"/>
<path d="M110.24 185.896C110.24 185.896 113.273 196.987 111.059 203.817C110.124 206.716 122.928 210.495 122.928 210.495C122.928 210.495 133.304 199.959 138.104 200.185C142.91 200.412 117.852 195.208 110.24 185.896Z" fill="#D31E3C"/>
<path d="M26.0909 236.463C30.2183 227.481 30.2916 218.694 26.2621 216.848C22.2326 215.001 15.6228 220.785 11.5015 229.774C7.37418 238.756 7.3008 247.537 11.3303 249.389C15.3537 251.236 21.9697 245.452 26.0909 236.463Z" fill="#D31E3C"/>
<path d="M22.7279 234.922C25.5651 228.74 25.6201 222.699 22.8502 221.427C20.0742 220.156 15.531 224.136 12.6939 230.318C9.8567 236.5 9.80167 242.541 12.5777 243.813C15.3476 245.085 19.8968 241.104 22.7279 234.922Z" fill="#A61932"/>
<path d="M28.4389 223.231C28.4389 223.231 32.2972 231.376 37.1033 234.311C39.1394 235.558 33.459 244.339 33.459 244.339C33.459 244.339 21.9085 243.373 19.1631 245.959C16.4238 248.539 28.6652 232.66 28.4389 223.231Z" fill="#D31E3C"/>
<path d="M154.405 241.685C152.657 234.665 153.788 228.331 156.943 227.548C160.092 226.765 164.06 231.828 165.809 238.848C167.558 245.873 166.427 252.202 163.278 252.985C160.129 253.767 156.154 248.711 154.405 241.685Z" fill="#D31E3C"/>
<path d="M157.035 241.031C155.83 236.2 156.607 231.847 158.777 231.309C160.942 230.77 163.675 234.25 164.88 239.08C166.084 243.911 165.302 248.27 163.137 248.802C160.966 249.347 158.233 245.867 157.035 241.031Z" fill="#A61932"/>
<path d="M154.509 231.853C154.509 231.853 150.633 237.185 146.774 238.646C145.136 239.264 148.04 246.35 148.04 246.35C148.04 246.35 156.478 247.225 158.105 249.457C159.725 251.688 153.066 238.603 154.509 231.853Z" fill="#D31E3C"/>
<path d="M66.1292 195.074C68.3182 192.591 69.3822 190.127 68.4405 188.476C66.8324 185.657 60.4304 186.275 54.1385 189.858C47.8466 193.447 44.0556 198.638 45.6576 201.457C46.5075 202.943 48.7149 203.414 51.5092 203.059C53.3803 203.872 57.2753 205.768 59.0974 208.238C60.1369 209.645 66.1781 204.93 66.1781 204.93C66.1781 204.93 64.9797 197.868 66.1292 195.074Z" fill="#D31E3C"/>
<path d="M148.933 291.788C155.078 281.846 163.681 276.018 168.139 278.776C172.596 281.528 171.227 291.825 165.082 301.767C158.93 311.709 150.327 317.536 145.869 314.779C141.412 312.027 142.782 301.73 148.933 291.788Z" fill="#D31E3C"/>
<path d="M152.651 294.087C156.882 287.245 162.795 283.234 165.864 285.135C168.928 287.031 167.986 294.111 163.761 300.948C159.529 307.79 153.611 311.801 150.547 309.905C147.478 308.01 148.419 300.923 152.651 294.087Z" fill="#A61932"/>
<path d="M160.422 280.818C160.422 280.818 149.881 282.347 143.839 279.54C141.277 278.348 136.355 289.691 136.355 289.691C136.355 289.691 144.867 300.428 144.115 304.818C143.369 309.208 150.994 286.762 160.422 280.818Z" fill="#D31E3C"/>
<path d="M45.413 294.735C45.413 294.735 40.4846 283.386 37.9226 284.585C33.459 286.664 26.5495 286.358 23.2415 286.065C19.53 283.362 15.9957 282.353 13.6294 283.814C9.16575 286.572 10.5415 296.863 16.6867 306.811C22.838 316.754 31.4351 322.581 35.8926 319.823C38.6197 318.142 39.1456 313.629 37.7575 308.12C38.7603 303.149 45.413 294.735 45.413 294.735Z" fill="#D31E3C"/>
<path d="M91.9694 323.718C101.294 322.728 109.219 325.308 109.659 329.484C110.105 333.667 102.908 337.855 93.5837 338.846C84.259 339.842 76.3406 337.262 75.8942 333.08C75.4478 328.903 82.6447 324.709 91.9694 323.718Z" fill="#D31E3C"/>
<path d="M92.3424 327.204C98.7566 326.519 104.205 328.292 104.51 331.172C104.816 334.046 99.8695 336.932 93.4553 337.611C87.0411 338.295 81.593 336.516 81.2873 333.642C80.9754 330.775 85.9282 327.888 92.3424 327.204Z" fill="#A61932"/>
<path d="M104.578 325.602C104.578 325.602 98.4203 319.683 97.2341 314.473C96.7266 312.266 87.1145 314.724 87.1145 314.724C87.1145 314.724 84.4974 325.394 81.3423 327.075C78.1933 328.757 96.1702 322.55 104.578 325.602Z" fill="#D31E3C"/>
<path d="M535.491 204.667C535.491 276.055 477.598 333.923 406.186 333.923C334.767 333.923 276.881 276.055 276.881 204.667C276.881 133.28 334.767 75.405 406.186 75.405C477.598 75.405 535.491 133.28 535.491 204.667Z" fill="#F14A60"/>
<path d="M504.478 146.126C510.036 154.656 511.436 163.59 507.608 166.084C503.781 168.573 496.174 163.669 490.622 155.139C485.064 146.603 483.664 137.67 487.485 135.181C491.319 132.693 498.926 137.59 504.478 146.126Z" fill="#D31E3C"/>
<path d="M355.63 287.037C362.778 289.348 367.792 293.622 366.838 296.576C365.878 299.529 359.311 300.055 352.163 297.737C345.015 295.42 340.001 291.152 340.955 288.192C341.915 285.239 348.482 284.719 355.63 287.037Z" fill="#D31E3C"/>
<path d="M374.799 118.018C362.197 123.991 349.809 124.254 347.125 118.605C344.453 112.961 352.5 103.538 365.102 97.5643C377.71 91.5903 390.098 91.3274 392.776 96.9773C395.455 102.627 387.408 112.044 374.799 118.018Z" fill="#D31E3C"/>
<path d="M385.469 190.549C379.043 203.059 364.71 208.52 353.466 202.741C342.221 196.969 338.314 182.147 344.74 169.643C351.161 157.133 365.487 151.672 376.738 157.451C387.983 163.223 391.896 178.044 385.469 190.549Z" fill="#D31E3C"/>
<path d="M452.546 205.878C455.286 214.004 463.424 218.59 470.731 216.132C478.038 213.668 481.744 205.089 479.004 196.963C476.265 188.837 468.12 184.251 460.813 186.709C453.506 189.167 449.807 197.752 452.546 205.878Z" fill="#D31E3C"/>
<path d="M408.197 239.154C408.197 243.452 404.712 246.944 400.407 246.944C396.109 246.944 392.617 243.452 392.617 239.154C392.617 234.849 396.109 231.364 400.407 231.364C404.712 231.364 408.197 234.849 408.197 239.154Z" fill="#D31E3C"/>
<path d="M484.636 282.934C486.831 289.44 476.393 298.832 461.327 303.907C446.261 308.982 432.27 307.82 430.075 301.308C427.886 294.802 438.318 285.41 453.384 280.335C468.45 275.254 482.441 276.422 484.636 282.934Z" fill="#D31E3C"/>
<path d="M475.751 73.6074C451.464 62.4421 435.841 44.5753 440.849 33.6853C445.851 22.8074 469.6 23.0336 493.875 34.1989C518.162 45.358 533.791 63.2309 528.783 74.1149C523.775 84.9927 500.038 84.7665 475.751 73.6074Z" fill="#F14A60"/>
<path d="M479.934 64.5211C463.222 56.8473 452.479 44.5508 455.922 37.0666C459.358 29.5823 475.696 29.7352 492.401 37.4151C509.106 45.095 519.856 57.3915 516.413 64.8757C512.971 72.36 496.639 72.2071 479.934 64.5211Z" fill="#D31E3C"/>
<path d="M447.636 50.6104C447.636 50.6104 454.069 74.0965 449.385 88.5697C447.392 94.7149 474.516 102.707 474.516 102.707C474.516 102.707 496.498 80.4007 506.673 80.8776C516.841 81.3484 463.767 70.3361 447.636 50.6104Z" fill="#F14A60"/>
<path d="M269.409 157.72C278.146 138.685 278.305 120.084 269.769 116.171C261.239 112.251 247.237 124.511 238.499 143.546C229.762 162.575 229.603 181.175 238.139 185.088C246.675 189.008 260.671 176.748 269.409 157.72Z" fill="#F14A60"/>
<path d="M262.291 154.454C268.302 141.363 268.412 128.565 262.542 125.869C256.666 123.178 247.035 131.61 241.025 144.702C235.02 157.793 234.904 170.591 240.78 173.281C246.65 175.978 256.281 167.546 262.291 154.454Z" fill="#D31E3C"/>
<path d="M274.38 129.696C274.38 129.696 282.549 146.946 292.73 153.158C297.053 155.793 285.007 174.394 285.007 174.394C285.007 174.394 260.542 172.352 254.74 177.824C248.937 183.297 274.863 149.654 274.38 129.696Z" fill="#F14A60"/>
<path d="M541.19 168.781C537.484 153.904 539.893 140.501 546.564 138.838C553.235 137.175 561.649 147.887 565.354 162.77C569.06 177.647 566.657 191.056 559.98 192.713C553.309 194.377 544.901 183.664 541.19 168.781Z" fill="#F14A60"/>
<path d="M546.754 167.399C544.204 157.163 545.861 147.942 550.453 146.799C555.039 145.655 560.83 153.03 563.373 163.265C565.923 173.495 564.272 182.722 559.68 183.859C555.088 185.003 549.31 177.635 546.754 167.399Z" fill="#D31E3C"/>
<path d="M541.416 147.948C541.416 147.948 533.198 159.248 525.029 162.342C521.568 163.651 527.707 178.668 527.707 178.668C527.707 178.668 545.586 180.515 549.022 185.235C552.459 189.968 538.365 162.244 541.416 147.948Z" fill="#F14A60"/>
<path d="M354.224 70.0425C358.847 64.7901 361.103 59.5683 359.109 56.0707C355.71 50.0968 342.142 51.4175 328.818 59.0057C315.494 66.6 307.453 77.594 310.859 83.5619C312.651 86.7109 317.335 87.7137 323.241 86.9616C327.21 88.6798 335.452 92.6971 339.323 97.9311C341.524 100.909 354.316 90.93 354.316 90.93C354.316 90.93 351.778 75.9676 354.224 70.0425Z" fill="#F14A60"/>
<path d="M529.596 274.899C542.62 253.835 560.836 241.495 570.283 247.335C579.724 253.174 576.819 274.979 563.795 296.038C550.777 317.102 532.556 329.442 523.115 323.608C513.668 317.769 516.572 295.964 529.596 274.899Z" fill="#F14A60"/>
<path d="M537.472 279.767C546.436 265.281 558.965 256.788 565.464 260.805C571.958 264.823 569.965 279.822 561.001 294.307C552.043 308.799 539.514 317.286 533.014 313.275C526.515 309.257 528.514 294.258 537.472 279.767Z" fill="#D31E3C"/>
<path d="M553.945 251.658C553.945 251.658 531.608 254.905 518.816 248.961C513.393 246.436 502.961 270.466 502.961 270.466C502.961 270.466 520.987 293.206 519.403 302.507C517.814 311.807 533.968 264.248 553.945 251.658Z" fill="#F14A60"/>
<path d="M310.333 281.149C310.333 281.149 299.896 257.118 294.478 259.637C285.013 264.04 270.381 263.41 263.373 262.78C255.51 257.051 248.02 254.917 243.006 258.017C233.565 263.85 236.469 285.655 249.487 306.72C262.517 327.778 280.733 340.124 290.174 334.284C295.946 330.719 297.059 321.168 294.118 309.496C296.239 298.96 310.333 281.149 310.333 281.149Z" fill="#F14A60"/>
<path d="M408.949 342.533C428.7 340.429 445.478 345.896 446.42 354.75C447.361 363.598 432.118 372.476 412.368 374.579C392.617 376.689 375.845 371.216 374.897 362.368C373.956 353.521 389.199 344.642 408.949 342.533Z" fill="#F14A60"/>
<path d="M409.738 349.913C423.325 348.47 434.863 352.231 435.511 358.321C436.165 364.405 425.679 370.519 412.086 371.962C398.506 373.411 386.968 369.645 386.313 363.561C385.665 357.471 396.152 351.362 409.738 349.913Z" fill="#D31E3C"/>
<path d="M435.646 346.526C435.646 346.526 422.609 333.979 420.09 322.954C419.02 318.282 398.671 323.486 398.671 323.486C398.671 323.486 393.119 346.079 386.448 349.644C379.771 353.209 417.846 340.063 435.646 346.526Z" fill="#F14A60"/>
<path d="M497.898 488.28C497.898 519.715 472.4 545.207 440.947 545.207C409.5 545.207 384.002 519.715 384.002 488.28C384.002 456.839 409.5 431.353 440.947 431.353C472.4 431.353 497.898 456.839 497.898 488.28Z" fill="#F14A60"/>
<path d="M484.232 462.501C486.684 466.255 487.302 470.187 485.614 471.288C483.926 472.388 480.582 470.224 478.13 466.469C475.684 462.709 475.066 458.777 476.754 457.677C478.436 456.582 481.786 458.741 484.232 462.501Z" fill="#D31E3C"/>
<path d="M418.684 524.552C421.833 525.573 424.04 527.456 423.618 528.752C423.196 530.061 420.304 530.287 417.155 529.266C414.012 528.245 411.799 526.368 412.221 525.065C412.649 523.763 415.541 523.537 418.684 524.552Z" fill="#D31E3C"/>
<path d="M427.128 450.119C421.576 452.748 416.122 452.864 414.942 450.382C413.762 447.887 417.302 443.741 422.854 441.112C428.406 438.483 433.86 438.367 435.04 440.855C436.227 443.338 432.68 447.49 427.128 450.119Z" fill="#D31E3C"/>
<path d="M431.824 482.061C428.993 487.571 422.683 489.974 417.73 487.43C412.777 484.893 411.059 478.362 413.884 472.853C416.715 467.344 423.025 464.947 427.978 467.484C432.931 470.028 434.655 476.558 431.824 482.061Z" fill="#D31E3C"/>
<path d="M461.37 488.812C462.568 492.389 466.157 494.413 469.374 493.325C472.596 492.242 474.223 488.47 473.018 484.886C471.813 481.309 468.224 479.286 465.008 480.368C461.792 481.456 460.159 485.235 461.37 488.812Z" fill="#D31E3C"/>
<path d="M441.834 503.469C441.834 505.358 440.299 506.893 438.403 506.893C436.514 506.893 434.973 505.358 434.973 503.469C434.973 501.573 436.514 500.038 438.403 500.038C440.299 500.038 441.834 501.573 441.834 503.469Z" fill="#D31E3C"/>
<path d="M475.501 522.748C476.467 525.616 471.869 529.749 465.234 531.987C458.6 534.219 452.436 533.705 451.47 530.844C450.504 527.976 455.102 523.836 461.737 521.605C468.371 519.367 474.534 519.88 475.501 522.748Z" fill="#D31E3C"/>
<path d="M471.581 430.558C460.887 425.642 454.008 417.773 456.215 412.979C458.416 408.191 468.878 408.289 479.567 413.205C490.261 418.121 497.146 425.991 494.939 430.785C492.738 435.578 482.282 435.475 471.581 430.558Z" fill="#F14A60"/>
<path d="M473.428 426.566C466.072 423.178 461.333 417.767 462.856 414.471C464.366 411.175 471.563 411.242 478.919 414.624C486.274 418.005 491.013 423.417 489.491 426.718C487.974 430.014 480.784 429.941 473.428 426.566Z" fill="#D31E3C"/>
<path d="M459.205 420.433C459.205 420.433 462.036 430.772 459.97 437.15C459.095 439.853 471.043 443.375 471.043 443.375C471.043 443.375 480.722 433.555 485.204 433.762C489.68 433.97 466.31 429.121 459.205 420.433Z" fill="#F14A60"/>
<path d="M380.712 467.607C384.558 459.224 384.632 451.03 380.871 449.306C377.111 447.581 370.947 452.974 367.101 461.364C363.255 469.741 363.182 477.934 366.942 479.658C370.703 481.383 376.866 475.984 380.712 467.607Z" fill="#F14A60"/>
<path d="M377.575 466.164C380.223 460.404 380.272 454.766 377.686 453.58C375.099 452.394 370.862 456.105 368.214 461.871C365.566 467.637 365.518 473.275 368.104 474.461C370.69 475.647 374.928 471.93 377.575 466.164Z" fill="#D31E3C"/>
<path d="M382.901 455.261C382.901 455.261 386.503 462.856 390.985 465.595C392.886 466.757 387.585 474.944 387.585 474.944C387.585 474.944 376.811 474.051 374.249 476.461C371.699 478.87 383.115 464.054 382.901 455.261Z" fill="#F14A60"/>
<path d="M500.405 472.474C498.773 465.925 499.837 460.019 502.772 459.291C505.707 458.557 509.412 463.278 511.045 469.826C512.677 476.381 511.619 482.282 508.684 483.015C505.743 483.749 502.038 479.029 500.405 472.474Z" fill="#F14A60"/>
<path d="M502.857 471.868C501.738 467.356 502.466 463.296 504.484 462.794C506.508 462.287 509.057 465.534 510.182 470.046C511.301 474.553 510.574 478.613 508.55 479.114C506.532 479.616 503.982 476.369 502.857 471.868Z" fill="#D31E3C"/>
<path d="M500.503 463.302C500.503 463.302 496.883 468.279 493.288 469.643C491.759 470.218 494.468 476.834 494.468 476.834C494.468 476.834 502.337 477.641 503.854 479.72C505.364 481.805 499.158 469.6 500.503 463.302Z" fill="#F14A60"/>
<path d="M418.06 428.993C420.102 426.676 421.099 424.383 420.219 422.836C418.721 420.206 412.747 420.787 406.877 424.132C401.007 427.477 397.466 432.313 398.964 434.949C399.753 436.337 401.82 436.777 404.425 436.441C406.167 437.199 409.799 438.966 411.499 441.271C412.471 442.586 418.109 438.189 418.109 438.189C418.109 438.189 416.984 431.598 418.06 428.993Z" fill="#F14A60"/>
<path d="M495.3 519.208C501.035 509.932 509.057 504.496 513.215 507.07C517.373 509.638 516.101 519.244 510.36 528.52C504.624 537.796 496.602 543.232 492.444 540.658C488.286 538.089 489.564 528.483 495.3 519.208Z" fill="#F14A60"/>
<path d="M498.767 521.354C502.71 514.976 508.232 511.234 511.094 513.001C513.955 514.768 513.075 521.372 509.131 527.756C505.181 534.139 499.659 537.876 496.804 536.108C493.942 534.341 494.817 527.738 498.767 521.354Z" fill="#D31E3C"/>
<path d="M506.025 508.972C506.025 508.972 496.186 510.403 490.555 507.786C488.164 506.673 483.566 517.257 483.566 517.257C483.566 517.257 491.515 527.273 490.812 531.37C490.108 535.466 497.226 514.524 506.025 508.972Z" fill="#F14A60"/>
<path d="M398.738 521.959C398.738 521.959 394.14 511.375 391.755 512.488C387.585 514.426 381.14 514.151 378.059 513.87C374.592 511.35 371.29 510.409 369.082 511.772C364.924 514.347 366.202 523.946 371.938 533.222C377.673 542.498 385.696 547.934 389.86 545.366C392.397 543.794 392.893 539.588 391.596 534.445C392.532 529.804 398.738 521.959 398.738 521.959Z" fill="#F14A60"/>
<path d="M442.164 548.998C450.865 548.069 458.251 550.478 458.667 554.373C459.083 558.274 452.369 562.181 443.668 563.11C434.973 564.04 427.587 561.625 427.171 557.736C426.755 553.835 433.469 549.927 442.164 548.998Z" fill="#F14A60"/>
<path d="M442.512 552.251C448.492 551.609 453.58 553.266 453.861 555.95C454.148 558.628 449.532 561.319 443.546 561.955C437.566 562.591 432.484 560.934 432.197 558.255C431.916 555.571 436.532 552.887 442.512 552.251Z" fill="#D31E3C"/>
<path d="M453.922 550.753C453.922 550.753 448.181 545.231 447.074 540.376C446.603 538.316 437.639 540.609 437.639 540.609C437.639 540.609 435.193 550.557 432.252 552.129C429.317 553.7 446.083 547.909 453.922 550.753Z" fill="#F14A60"/>
</g>
<defs>
<filter id="filter0_d_22_19" x="-4" y="0" width="595" height="595" filterUnits="userSpaceOnUse" color-interpolation-filters="sRGB">
<feFlood flood-opacity="0" result="BackgroundImageFix"/>
<feColorMatrix in="SourceAlpha" type="matrix" values="0 0 0 0 0 0 0 0 0 0 0 0 0 0 0 0 0 0 127 0" result="hardAlpha"/>
<feOffset dy="4"/>
<feGaussianBlur stdDeviation="2"/>
<feComposite in2="hardAlpha" operator="out"/>
<feColorMatrix type="matrix" values="0 0 0 0 0 0 0 0 0 0 0 0 0 0 0 0 0 0 0.25 0"/>
<feBlend mode="normal" in2="BackgroundImageFix" result="effect1_dropShadow_22_19"/>
<feBlend mode="normal" in="SourceGraphic" in2="effect1_dropShadow_22_19" result="shape"/>
</filter>
</defs>
</svg>
