<svg width="980" height="734" viewBox="0 0 980 734" fill="none" xmlns="http://www.w3.org/2000/svg">
<path d="M885.12 30.3499C840.3 46.8899 625.43 124.59 407.64 203.12C-26.08 359.78 0.309998 349.31 0.309998 366.69C0.309998 372.76 1.78 376.53 6.17 381.14C12.03 387.84 145.44 479.57 151.3 481.24C153.81 481.87 679.88 206.69 783.13 150.77C791.3 146.16 798.21 142.81 798.21 143.23C798.21 143.86 675.28 236.01 524.91 348.05L251.61 552.03L252.24 637.06C252.66 717.48 252.87 722.5 256.64 726.69C258.94 729.2 263.13 731.09 266.06 731.09C269.62 731.09 292.45 717.06 332.66 690.25C366.38 667.84 394.44 649.41 395.07 649.41C395.49 649.41 423.55 668.26 457.27 691.29C512.98 729.19 519.47 733.17 527.43 733.17C534.34 733.17 537.69 731.91 542.51 727.31C545.86 724.17 565.34 693.8 585.86 659.87C617.06 607.93 829.63 257.36 947.32 63.64C965.75 33.27 980.41 6.88989 979.99 4.99988C979.57 2.48987 977.27 1.01996 973.08 0.809937C969.52 0.619934 931.62 13.3899 885.12 30.3499Z" fill="#333333"/>
</svg>
