<svg width="1024" height="1024" viewBox="0 0 1024 1024" fill="none" xmlns="http://www.w3.org/2000/svg">
<path d="M930.912 0H93.088C41.6533 0 0 41.6533 0 93.088V930.912C0 982.347 41.6533 1024 93.088 1024H930.912C982.347 1024 1024 982.347 1024 930.912V93.088C1024 41.6533 982.347 0 930.912 0ZM323.68 837.813H186.368V396.011H323.68V837.813ZM253.621 332.843C209.365 332.843 173.568 296.96 173.568 252.789C173.568 208.619 209.408 172.779 253.621 172.779C297.749 172.779 333.643 208.661 333.643 252.789C333.643 296.96 297.749 332.843 253.621 332.843ZM838.005 837.813H700.789V622.965C700.789 571.723 699.861 505.813 629.429 505.813C557.984 505.813 546.997 561.621 546.997 619.243V837.813H409.781V396.011H541.515V456.373H543.371C561.707 421.653 606.485 385.024 673.28 385.024C812.309 385.024 838.005 476.533 838.005 595.499V837.813Z" fill="#333333"/>
</svg>
