<svg width="500" height="500" viewBox="0 0 500 500" fill="none" xmlns="http://www.w3.org/2000/svg">
<path d="M83.5625 478.88V21.1196H416.896V387.036L324.938 478.88H83.5625Z" fill="#333333"/>
<path d="M187.729 229.193C187.734 226.776 187.88 224.365 188.167 221.958C188.453 219.557 188.88 217.182 189.448 214.828C190.016 212.479 190.719 210.167 191.557 207.896C192.396 205.625 193.365 203.417 194.464 201.261C195.557 199.104 196.781 197.016 198.125 195.005C199.464 192.99 200.922 191.063 202.49 189.219C204.057 187.375 205.729 185.63 207.505 183.985C209.281 182.339 211.146 180.797 213.099 179.37L229.922 166.823L217.208 150.125C216.422 149.104 215.682 148.047 214.995 146.958C214.307 145.87 213.672 144.755 213.083 143.604C212.5 142.458 211.969 141.287 211.495 140.089C211.021 138.891 210.599 137.672 210.24 136.438C209.875 135.203 209.573 133.953 209.328 132.688C209.078 131.422 208.896 130.151 208.766 128.87C208.635 127.589 208.568 126.302 208.562 125.016C208.552 123.724 208.604 122.443 208.714 121.156C208.828 119.875 209 118.599 209.229 117.333C209.458 116.063 209.745 114.813 210.094 113.568C210.437 112.328 210.839 111.11 211.302 109.906C211.76 108.703 212.276 107.521 212.844 106.365C213.417 105.208 214.036 104.083 214.708 102.985C215.385 101.891 216.109 100.823 216.88 99.7918C217.656 98.7606 218.474 97.771 219.339 96.8127C220.203 95.8595 221.115 94.9481 222.062 94.0783C223.016 93.2085 224 92.3804 225.031 91.6043C226.057 90.8231 227.12 90.0939 228.214 89.4116C229.307 88.7345 230.432 88.1043 231.583 87.5314C232.74 86.9533 233.917 86.4325 235.115 85.9637C236.318 85.495 237.542 85.0887 238.781 84.7345C240.021 84.3804 241.271 84.0835 242.542 83.8439C243.807 83.6095 245.083 83.4272 246.365 83.3075C247.651 83.1929 248.937 83.1304 250.229 83.1304C251.516 83.1304 252.802 83.1929 254.089 83.3075C255.37 83.4272 256.646 83.6095 257.917 83.8439C259.182 84.0835 260.437 84.3804 261.677 84.7345C262.917 85.0887 264.135 85.495 265.339 85.9637C266.542 86.4325 267.719 86.9533 268.87 87.5314C270.026 88.1043 271.146 88.7345 272.245 89.4116C273.339 90.0939 274.396 90.8231 275.427 91.6043C276.453 92.3804 277.443 93.2085 278.391 94.0783C279.344 94.9481 280.25 95.8595 281.115 96.8127C281.979 97.771 282.802 98.7606 283.573 99.7918C284.344 100.823 285.068 101.891 285.745 102.985C286.417 104.083 287.042 105.208 287.609 106.365C288.177 107.521 288.693 108.703 289.156 109.906C289.615 111.11 290.016 112.328 290.365 113.568C290.708 114.813 291 116.063 291.229 117.333C291.458 118.599 291.625 119.875 291.74 121.156C291.849 122.443 291.901 123.724 291.891 125.016C291.885 126.302 291.818 127.589 291.687 128.87C291.562 130.151 291.375 131.422 291.13 132.688C290.88 133.953 290.578 135.203 290.214 136.438C289.854 137.672 289.432 138.891 288.958 140.089C288.484 141.287 287.953 142.458 287.37 143.604C286.786 144.755 286.151 145.87 285.458 146.958C284.771 148.047 284.036 149.104 283.25 150.125L270.542 166.828L287.365 179.375C289.318 180.807 291.182 182.344 292.958 183.99C294.729 185.636 296.401 187.38 297.969 189.224C299.536 191.068 300.995 192.995 302.333 195.011C303.677 197.021 304.896 199.104 305.995 201.261C307.094 203.417 308.062 205.63 308.901 207.901C309.74 210.172 310.437 212.479 311.005 214.833C311.573 217.182 312 219.563 312.286 221.964C312.578 224.365 312.724 226.776 312.729 229.193H187.729Z" fill="#333333"/>
<path d="M312.729 478.88V374.844H416.896L312.729 478.88Z" fill="#333333"/>
<path d="M437.729 374.844V21.1198C437.729 19.7552 437.594 18.401 437.328 17.0625C437.062 15.7188 436.667 14.4219 436.141 13.1563C435.62 11.8958 434.974 10.6979 434.219 9.55729C433.458 8.42188 432.594 7.375 431.625 6.40625C430.656 5.44271 429.604 4.57813 428.469 3.81771C427.333 3.0625 426.13 2.41667 424.865 1.89583C423.604 1.375 422.302 0.979167 420.958 0.713541C419.615 0.447917 418.26 0.3125 416.896 0.3125H83.5625C82.1927 0.3125 80.8385 0.447917 79.4948 0.713541C78.1562 0.979167 76.8541 1.375 75.5885 1.89583C74.3229 2.41667 73.125 3.0625 71.9843 3.81771C70.8489 4.57813 69.7968 5.44271 68.8281 6.40625C67.8593 7.375 67 8.42188 66.2395 9.55729C65.4791 10.6979 64.8385 11.8958 64.3125 13.1563C63.7916 14.4219 63.3958 15.7188 63.125 17.0625C62.8593 18.401 62.7291 19.7552 62.7291 21.1198V478.88C62.7291 480.245 62.8593 481.599 63.125 482.938C63.3958 484.281 63.7916 485.578 64.3125 486.844C64.8385 488.104 65.4791 489.302 66.2395 490.438C67 491.578 67.8593 492.625 68.8281 493.594C69.7968 494.557 70.8489 495.422 71.9843 496.182C73.125 496.938 74.3229 497.578 75.5885 498.104C76.8541 498.625 78.1562 499.021 79.4948 499.286C80.8385 499.552 82.1927 499.688 83.5625 499.688H312.729C315.49 499.682 318.146 499.151 320.698 498.099C323.25 497.042 325.5 495.536 327.458 493.589L431.625 389.552C433.474 387.536 434.927 385.266 435.974 382.74C437.026 380.208 437.609 377.578 437.729 374.844ZM104.396 41.9271H396.062V354.036H312.729C311.359 354.036 310.005 354.172 308.661 354.438C307.323 354.703 306.021 355.099 304.755 355.62C303.49 356.141 302.292 356.786 301.151 357.542C300.016 358.302 298.964 359.167 297.995 360.13C297.026 361.099 296.167 362.146 295.406 363.281C294.646 364.422 294.005 365.62 293.479 366.88C292.958 368.146 292.562 369.443 292.292 370.786C292.026 372.125 291.896 373.479 291.896 374.844V458.073H104.396V41.9271ZM333.562 428.651V395.651H366.599L333.562 428.651Z" fill="#333333"/>
<path d="M166.896 229.193C166.896 230.557 167.026 231.911 167.292 233.25C167.563 234.594 167.958 235.891 168.479 237.156C169.005 238.417 169.646 239.615 170.406 240.75C171.167 241.891 172.026 242.938 172.995 243.906C173.964 244.87 175.016 245.734 176.151 246.495C177.292 247.25 178.49 247.896 179.755 248.417C181.021 248.938 182.323 249.333 183.661 249.599C185.005 249.865 186.359 250 187.729 250H312.729C314.094 250 315.448 249.865 316.792 249.599C318.135 249.333 319.438 248.938 320.698 248.417C321.964 247.896 323.167 247.25 324.302 246.495C325.438 245.734 326.49 244.87 327.458 243.906C328.427 242.938 329.292 241.891 330.052 240.75C330.807 239.615 331.453 238.417 331.974 237.156C332.5 235.891 332.896 234.594 333.161 233.25C333.427 231.911 333.563 230.557 333.563 229.193C333.552 225.969 333.354 222.755 332.969 219.552C332.589 216.349 332.016 213.182 331.266 210.047C330.51 206.911 329.573 203.828 328.458 200.802C327.344 197.776 326.057 194.828 324.599 191.948C323.141 189.073 321.521 186.292 319.734 183.604C317.948 180.917 316.016 178.339 313.932 175.88C311.844 173.417 309.625 171.083 307.266 168.88C304.906 166.677 302.432 164.62 299.833 162.703C301.896 160.031 303.729 157.214 305.333 154.24C306.932 151.266 308.281 148.188 309.38 144.995C310.474 141.802 311.307 138.542 311.865 135.214C312.427 131.885 312.714 128.531 312.729 125.156C312.729 123.109 312.625 121.073 312.427 119.036C312.224 117.005 311.927 114.984 311.526 112.979C311.125 110.974 310.63 108.995 310.036 107.036C309.443 105.078 308.755 103.156 307.969 101.271C307.188 99.3802 306.313 97.5312 305.349 95.7292C304.38 93.9271 303.333 92.1771 302.193 90.474C301.057 88.776 299.839 87.1354 298.542 85.5573C297.24 83.974 295.87 82.4635 294.422 81.0156C292.974 79.5729 291.458 78.1979 289.875 76.901C288.297 75.6042 286.651 74.3906 284.948 73.2552C283.25 72.1198 281.495 71.0677 279.688 70.1042C277.885 69.1406 276.036 68.2708 274.146 67.4844C272.255 66.7031 270.328 66.0156 268.37 65.4219C266.411 64.8281 264.427 64.3333 262.422 63.9323C260.411 63.5365 258.391 63.2344 256.354 63.0365C254.318 62.8333 252.276 62.7344 250.229 62.7344C248.182 62.7344 246.141 62.8333 244.099 63.0365C242.063 63.2344 240.042 63.5365 238.036 63.9323C236.026 64.3333 234.042 64.8281 232.083 65.4219C230.125 66.0156 228.203 66.7031 226.307 67.4844C224.417 68.2708 222.568 69.1406 220.766 70.1042C218.958 71.0677 217.208 72.1198 215.505 73.2552C213.802 74.3906 212.161 75.6042 210.578 76.901C208.995 78.1979 207.479 79.5729 206.031 81.0156C204.583 82.4635 203.214 83.974 201.917 85.5573C200.615 87.1354 199.396 88.776 198.26 90.474C197.125 92.1771 196.073 93.9271 195.109 95.7292C194.141 97.5312 193.266 99.3802 192.484 101.271C191.703 103.156 191.01 105.078 190.417 107.036C189.823 108.995 189.328 110.974 188.927 112.979C188.531 114.984 188.229 117.005 188.026 119.036C187.828 121.073 187.729 123.109 187.729 125.156C187.74 128.531 188.026 131.885 188.589 135.214C189.151 138.542 189.979 141.802 191.073 144.995C192.172 148.188 193.521 151.266 195.125 154.24C196.724 157.214 198.557 160.031 200.625 162.703C198.026 164.62 195.547 166.677 193.188 168.88C190.833 171.083 188.609 173.417 186.526 175.88C184.438 178.339 182.505 180.917 180.719 183.604C178.938 186.292 177.313 189.073 175.854 191.948C174.396 194.828 173.109 197.776 171.995 200.802C170.88 203.828 169.948 206.911 169.193 210.047C168.438 213.182 167.87 216.349 167.484 219.552C167.099 222.755 166.901 225.969 166.896 229.193ZM214.156 208.385C215.068 206.812 216.073 205.302 217.182 203.859C218.292 202.417 219.49 201.052 220.776 199.766C222.063 198.479 223.427 197.286 224.87 196.177C226.313 195.073 227.823 194.062 229.401 193.156C230.974 192.245 232.604 191.443 234.286 190.745C235.969 190.052 237.688 189.469 239.448 188.995C241.203 188.526 242.984 188.172 244.792 187.932C246.594 187.698 248.406 187.578 250.229 187.578C252.047 187.578 253.859 187.698 255.667 187.932C257.469 188.172 259.25 188.526 261.01 188.995C262.766 189.469 264.484 190.052 266.167 190.745C267.849 191.443 269.479 192.245 271.052 193.156C272.63 194.062 274.141 195.073 275.583 196.177C277.026 197.286 278.396 198.479 279.682 199.766C280.969 201.052 282.167 202.417 283.271 203.859C284.38 205.302 285.391 206.812 286.297 208.385H214.156ZM229.396 125.156C229.396 123.792 229.526 122.438 229.792 121.099C230.063 119.755 230.458 118.458 230.979 117.193C231.505 115.932 232.146 114.734 232.906 113.594C233.667 112.458 234.526 111.411 235.495 110.443C236.464 109.479 237.516 108.615 238.651 107.854C239.792 107.099 240.99 106.453 242.255 105.932C243.521 105.411 244.823 105.016 246.161 104.75C247.505 104.484 248.859 104.349 250.229 104.349C251.594 104.349 252.948 104.484 254.292 104.75C255.635 105.016 256.938 105.411 258.198 105.932C259.464 106.453 260.667 107.099 261.802 107.854C262.938 108.615 263.99 109.479 264.958 110.443C265.927 111.411 266.792 112.458 267.552 113.594C268.307 114.734 268.953 115.932 269.474 117.193C270 118.458 270.396 119.755 270.661 121.099C270.927 122.438 271.063 123.792 271.063 125.156C271.063 126.521 270.927 127.875 270.661 129.214C270.396 130.557 270 131.854 269.474 133.12C268.953 134.38 268.307 135.578 267.552 136.714C266.792 137.854 265.927 138.901 264.958 139.87C263.99 140.833 262.938 141.698 261.802 142.458C260.667 143.214 259.464 143.859 258.198 144.38C256.938 144.901 255.635 145.297 254.292 145.562C252.948 145.828 251.594 145.964 250.229 145.964C248.859 145.964 247.505 145.828 246.167 145.562C244.823 145.292 243.521 144.896 242.255 144.375C240.995 143.849 239.797 143.208 238.656 142.453C237.521 141.693 236.469 140.828 235.5 139.865C234.536 138.896 233.672 137.849 232.911 136.714C232.151 135.578 231.51 134.38 230.984 133.115C230.458 131.854 230.063 130.552 229.797 129.214C229.531 127.875 229.396 126.521 229.396 125.156Z" fill="white"/>
<path d="M146.062 312.422H354.396C355.76 312.422 357.115 312.286 358.458 312.021C359.802 311.755 361.104 311.359 362.365 310.838C363.63 310.312 364.833 309.672 365.969 308.917C367.104 308.156 368.156 307.292 369.125 306.328C370.094 305.359 370.958 304.312 371.719 303.172C372.474 302.036 373.12 300.838 373.641 299.578C374.167 298.312 374.562 297.015 374.828 295.672C375.094 294.333 375.229 292.979 375.229 291.614C375.229 290.25 375.094 288.896 374.828 287.557C374.562 286.213 374.167 284.917 373.641 283.651C373.12 282.39 372.474 281.193 371.719 280.052C370.958 278.917 370.094 277.87 369.125 276.901C368.156 275.937 367.104 275.073 365.969 274.312C364.833 273.557 363.63 272.911 362.365 272.39C361.104 271.87 359.802 271.474 358.458 271.208C357.115 270.943 355.76 270.807 354.396 270.807H146.062C144.693 270.807 143.339 270.943 141.995 271.208C140.656 271.474 139.354 271.87 138.089 272.39C136.823 272.911 135.625 273.557 134.484 274.312C133.349 275.073 132.297 275.937 131.328 276.901C130.359 277.87 129.5 278.917 128.74 280.052C127.979 281.193 127.339 282.39 126.812 283.651C126.292 284.917 125.896 286.213 125.625 287.557C125.359 288.896 125.229 290.25 125.229 291.614C125.229 292.979 125.359 294.333 125.625 295.672C125.896 297.015 126.292 298.312 126.812 299.578C127.339 300.838 127.979 302.036 128.74 303.172C129.5 304.312 130.359 305.359 131.328 306.328C132.297 307.292 133.349 308.156 134.484 308.917C135.625 309.672 136.823 310.312 138.089 310.838C139.354 311.359 140.656 311.755 141.995 312.021C143.339 312.286 144.693 312.422 146.062 312.422Z" fill="white"/>
<path d="M146.062 374.844H250.229C251.594 374.844 252.948 374.708 254.292 374.443C255.635 374.177 256.937 373.781 258.198 373.26C259.464 372.734 260.667 372.094 261.802 371.338C262.937 370.578 263.99 369.713 264.958 368.75C265.927 367.781 266.792 366.734 267.552 365.594C268.307 364.458 268.953 363.26 269.474 362C270 360.734 270.396 359.437 270.661 358.094C270.927 356.755 271.062 355.401 271.062 354.036C271.062 352.672 270.927 351.318 270.661 349.979C270.396 348.635 270 347.338 269.474 346.073C268.953 344.812 268.307 343.614 267.552 342.474C266.792 341.338 265.927 340.292 264.958 339.323C263.99 338.359 262.937 337.495 261.802 336.734C260.667 335.979 259.464 335.333 258.198 334.812C256.937 334.292 255.635 333.896 254.292 333.63C252.948 333.364 251.594 333.229 250.229 333.229H146.062C144.693 333.229 143.339 333.364 141.995 333.63C140.656 333.896 139.354 334.292 138.089 334.812C136.823 335.333 135.625 335.979 134.484 336.734C133.349 337.495 132.297 338.359 131.328 339.323C130.359 340.292 129.5 341.338 128.74 342.474C127.979 343.614 127.339 344.812 126.812 346.073C126.292 347.338 125.896 348.635 125.625 349.979C125.359 351.318 125.229 352.672 125.229 354.036C125.229 355.401 125.359 356.755 125.625 358.094C125.896 359.437 126.292 360.734 126.812 362C127.339 363.26 127.979 364.458 128.74 365.594C129.5 366.734 130.359 367.781 131.328 368.75C132.297 369.713 133.349 370.578 134.484 371.338C135.625 372.094 136.823 372.734 138.089 373.26C139.354 373.781 140.656 374.177 141.995 374.443C143.339 374.708 144.693 374.844 146.062 374.844Z" fill="white"/>
<path d="M250.229 395.651H146.062C144.693 395.651 143.339 395.786 141.995 396.052C140.656 396.318 139.354 396.713 138.089 397.234C136.823 397.755 135.625 398.401 134.484 399.156C133.349 399.917 132.297 400.781 131.328 401.745C130.359 402.713 129.5 403.76 128.74 404.896C127.979 406.036 127.339 407.234 126.812 408.495C126.292 409.76 125.896 411.057 125.625 412.401C125.359 413.739 125.229 415.094 125.229 416.458C125.229 417.823 125.359 419.177 125.625 420.515C125.896 421.859 126.292 423.156 126.812 424.422C127.339 425.682 127.979 426.88 128.74 428.015C129.5 429.156 130.359 430.203 131.328 431.172C132.297 432.135 133.349 433 134.484 433.76C135.625 434.515 136.823 435.156 138.089 435.682C139.354 436.203 140.656 436.599 141.995 436.864C143.339 437.13 144.693 437.265 146.062 437.265H250.229C251.594 437.265 252.948 437.13 254.292 436.864C255.635 436.599 256.937 436.203 258.198 435.682C259.464 435.156 260.667 434.515 261.802 433.76C262.937 433 263.99 432.135 264.958 431.172C265.927 430.203 266.792 429.156 267.552 428.015C268.307 426.88 268.953 425.682 269.474 424.422C270 423.156 270.396 421.859 270.661 420.515C270.927 419.177 271.062 417.823 271.062 416.458C271.062 415.094 270.927 413.739 270.661 412.401C270.396 411.057 270 409.76 269.474 408.495C268.953 407.234 268.307 406.036 267.552 404.896C266.792 403.76 265.927 402.713 264.958 401.745C263.99 400.781 262.937 399.917 261.802 399.156C260.667 398.401 259.464 397.755 258.198 397.234C256.937 396.713 255.635 396.318 254.292 396.052C252.948 395.786 251.594 395.651 250.229 395.651Z" fill="white"/>
</svg>
