<svg width="1080" height="368" viewBox="0 0 1080 368" fill="none" xmlns="http://www.w3.org/2000/svg">
<path d="M25.92 222.424V195.928L129.6 122.2V165.112L67.392 206.872V211.48L129.6 253.24V296.152L25.92 222.424ZM175.115 93.976H264.395C280.523 93.976 292.427 98.68 300.107 108.088C307.979 117.496 311.915 129.976 311.915 145.528C311.915 153.976 310.859 160.984 308.747 166.552C306.827 171.928 304.235 176.248 300.971 179.512C297.899 182.584 294.347 184.888 290.315 186.424C286.283 187.768 282.155 188.536 277.931 188.728V193.336C282.539 193.336 287.243 194.104 292.043 195.64C297.035 197.176 301.547 199.768 305.579 203.416C309.611 206.872 312.875 211.48 315.371 217.24C317.867 222.808 319.115 229.624 319.115 237.688C319.115 245.56 318.059 253.048 315.947 260.152C313.835 267.064 310.763 273.112 306.731 278.296C302.699 283.48 297.803 287.608 292.043 290.68C286.283 293.56 279.755 295 272.459 295H175.115V93.976ZM216.299 260.152H260.939C265.547 260.152 269.195 258.808 271.883 256.12C274.763 253.432 276.203 248.92 276.203 242.584V228.184C276.203 221.848 274.763 217.336 271.883 214.648C269.195 211.96 265.547 210.616 260.939 210.616H216.299V260.152ZM216.299 176.632H254.315C259.115 176.632 262.859 175.288 265.547 172.6C268.235 169.912 269.579 165.496 269.579 159.352V146.104C269.579 139.96 268.235 135.544 265.547 132.856C262.859 130.168 259.115 128.824 254.315 128.824H216.299V176.632ZM341.741 226.456V187.576H419.501V226.456H341.741ZM560.147 211.192H493.331V295H452.147V93.976H493.331V175.48H560.147V93.976H601.331V295H560.147V211.192ZM713.448 298.456C701.352 298.456 690.408 296.632 680.616 292.984C670.824 289.144 662.472 283.096 655.56 274.84C648.648 266.392 643.272 255.64 639.432 242.584C635.592 229.336 633.672 213.304 633.672 194.488C633.672 175.672 635.592 159.736 639.432 146.68C643.272 133.432 648.648 122.68 655.56 114.424C662.472 105.976 670.824 99.928 680.616 96.28C690.408 92.44 701.352 90.52 713.448 90.52C725.544 90.52 736.488 92.44 746.28 96.28C756.072 99.928 764.424 105.976 771.336 114.424C778.248 122.68 783.624 133.432 787.464 146.68C791.304 159.736 793.224 175.672 793.224 194.488C793.224 213.304 791.304 229.336 787.464 242.584C783.624 255.64 778.248 266.392 771.336 274.84C764.424 283.096 756.072 289.144 746.28 292.984C736.488 296.632 725.544 298.456 713.448 298.456ZM713.448 262.168C724.968 262.168 733.8 258.712 739.944 251.8C746.28 244.888 749.448 234.52 749.448 220.696V168.28C749.448 154.456 746.28 144.088 739.944 137.176C733.8 130.264 724.968 126.808 713.448 126.808C701.928 126.808 693 130.264 686.664 137.176C680.52 144.088 677.448 154.456 677.448 168.28V220.696C677.448 234.52 680.52 244.888 686.664 251.8C693 258.712 701.928 262.168 713.448 262.168ZM793.708 338.488L872.044 81.88H905.164L826.828 338.488H793.708ZM940.264 253.24L1002.47 211.48V206.872L940.264 165.112V122.2L1043.94 195.928V222.424L940.264 296.152V253.24Z" fill="#333333"/>
</svg>
